C:\Users\r0593348\3dpredictsim\Results\batch_windlass\Pog_s1_tmt_bCst_d05_k1000_WL40_ig24_pas_GRF.mot
nRows=30
nColumns=19

name C:\Users\r0593348\3dpredictsim\Results\batch_windlass\Pog_s1_tmt_bCst_d05_k1000_WL40_ig24_pas_GRF.mot
datacolumns 19
datarows 30
range 0.5535681664 0.8746377029
endheader
time 	ground_force_vx	ground_force_vy	ground_force_vz	ground_force_px	ground_force_py	ground_force_pz	1_ground_force_vx	1_ground_force_vy	1_ground_force_vz	1_ground_force_px	1_ground_force_py	1_ground_force_pz	ground_torque_x	ground_torque_y	ground_torque_z	1_ground_torque_x	1_ground_torque_y	1_ground_torque_z
        0.5535681664	       83.6219945108	      454.3590804427	        1.8004422073	        0.3695087376	        0.0000000000	        0.0350862638	      -71.1140473546	       49.2060543627	      -15.9758616368	        0.8435295359	        0.0000000000	       -0.0446489644	        0.0000000000	        0.0000000000	        0.0000000000	        0.0000000000	        0.0000000000	        0.0000000000	
        0.5646395297	       64.2282430725	      368.1629213704	        7.0252950002	        0.3747642225	        0.0000000000	        0.0330965697	     -125.2703329090	      108.6225098398	      -37.5249782797	        0.8550552544	        0.0000000000	       -0.0422278792	        0.0000000000	        0.0000000000	        0.0000000000	        0.0000000000	        0.0000000000	        0.0000000000	
        0.5757108930	       35.6206054665	      275.5437978567	       14.6421698868	        0.3827490197	        0.0000000000	        0.0295826009	     -101.4955457720	      223.2638380489	      -60.3846560804	        0.8639597782	        0.0000000000	       -0.0412357526	        0.0000000000	        0.0000000000	        0.0000000000	        0.0000000000	        0.0000000000	        0.0000000000	
        0.5867822564	       14.0492620946	      194.2612553458	       14.9037342523	        0.3938766226	        0.0000000000	        0.0237126755	      -52.3966161277	      434.2893754087	      -10.6664016812	        0.8727962784	        0.0000000000	       -0.0416306580	        0.0000000000	        0.0000000000	        0.0000000000	        0.0000000000	        0.0000000000	        0.0000000000	
        0.5978536197	        0.8573509527	      156.2908270619	       13.0360437461	        0.3981445062	        0.0000000000	        0.0208916464	      -72.2914215251	      668.8357181534	        9.4091420487	        0.8820349470	        0.0000000000	       -0.0440060941	        0.0000000000	        0.0000000000	        0.0000000000	        0.0000000000	        0.0000000000	        0.0000000000	
        0.6089249830	       -5.9232787131	      121.4295398204	       12.2024376914	        0.3981735773	        0.0000000000	        0.0209083123	      -96.1944736423	      809.8218199015	       15.8898032772	        0.8877300569	        0.0000000000	       -0.0454376224	        0.0000000000	        0.0000000000	        0.0000000000	        0.0000000000	        0.0000000000	        0.0000000000	
        0.6199963464	      -14.7304564857	       79.3041678494	        9.5245627578	        0.3979124033	        0.0000000000	        0.0208104729	     -106.8149567936	      864.0812049081	       17.8427500232	        0.8926984299	        0.0000000000	       -0.0462652143	        0.0000000000	        0.0000000000	        0.0000000000	        0.0000000000	        0.0000000000	        0.0000000000	
        0.6310677097	      -13.0978541323	       28.6696692027	        3.6783584238	        0.3975949784	        0.0000000000	        0.0205186787	     -112.1401399496	      879.8880932671	       17.3598981516	        0.8976916221	        0.0000000000	       -0.0465179453	        0.0000000000	        0.0000000000	        0.0000000000	        0.0000000000	        0.0000000000	        0.0000000000	
        0.6421390730	        0.3233219268	       -0.3140599285	        0.0043567061	        0.0000000000	        0.0000000000	        0.0000000000	     -109.4820304895	      878.2074844741	       15.2989875750	        0.9028807174	        0.0000000000	       -0.0463635520	        0.0000000000	        0.0000000000	        0.0000000000	        0.0000000000	        0.0000000000	        0.0000000000	
        0.6532104363	        0.0026330078	       -0.0021076031	        0.0001624509	        0.0000000000	        0.0000000000	        0.0000000000	      -97.8174750482	      846.5058355438	       16.2598784620	        0.9083926212	        0.0000000000	       -0.0460363373	        0.0000000000	        0.0000000000	        0.0000000000	        0.0000000000	        0.0000000000	        0.0000000000	
        0.6642817997	        0.0016893535	       -0.0011829290	        0.0001194596	        0.0000000000	        0.0000000000	        0.0000000000	      -82.6433503266	      796.9417279851	       16.2801464860	        0.9125179382	        0.0000000000	       -0.0457692585	        0.0000000000	        0.0000000000	        0.0000000000	        0.0000000000	        0.0000000000	        0.0000000000	
        0.6753531630	        0.0067060384	       -0.0042414667	        0.0004984612	        0.0000000000	        0.0000000000	        0.0000000000	      -69.3934468108	      746.2387948645	       16.5181761229	        0.9160733796	        0.0000000000	       -0.0456375742	        0.0000000000	        0.0000000000	        0.0000000000	        0.0000000000	        0.0000000000	        0.0000000000	
        0.6864245263	        0.0045077331	       -0.0026302413	        0.0003478912	        0.0000000000	        0.0000000000	        0.0000000000	      -57.9676403475	      703.0184343658	       17.0940711626	        0.9194058799	        0.0000000000	       -0.0455994378	        0.0000000000	        0.0000000000	        0.0000000000	        0.0000000000	        0.0000000000	        0.0000000000	
        0.6974958896	       -0.0996375918	        0.0545005227	       -0.0078886378	        0.0000000000	        0.0000000000	        0.0000000000	      -47.9690266362	      668.0468642575	       17.5815389333	        0.9227841678	        0.0000000000	       -0.0456316366	        0.0000000000	        0.0000000000	        0.0000000000	        0.0000000000	        0.0000000000	        0.0000000000	
        0.7085672530	       -0.0637849743	        0.0330282844	       -0.0051722802	        0.0000000000	        0.0000000000	        0.0000000000	      -39.4059540761	      640.0566893975	       18.2596201030	        0.9263489925	        0.0000000000	       -0.0457006395	        0.0000000000	        0.0000000000	        0.0000000000	        0.0000000000	        0.0000000000	        0.0000000000	
        0.7196386163	       -0.0386613498	        0.0190895946	       -0.0031994917	        0.0000000000	        0.0000000000	        0.0000000000	      -32.0668709002	      618.0328302384	       18.9716652271	        0.9302323285	        0.0000000000	       -0.0457802080	        0.0000000000	        0.0000000000	        0.0000000000	        0.0000000000	        0.0000000000	        0.0000000000	
        0.7307099796	       -0.0281291428	        0.0133245280	       -0.0023663215	        0.0000000000	        0.0000000000	        0.0000000000	      -26.2565489423	      601.7445814042	       19.6308236092	        0.9346274081	        0.0000000000	       -0.0458380267	        0.0000000000	        0.0000000000	        0.0000000000	        0.0000000000	        0.0000000000	        0.0000000000	
        0.7417813430	       -0.0260828745	        0.0119088259	       -0.0022231673	        0.0000000000	        0.0000000000	        0.0000000000	      -21.9891592396	      590.5040537160	       20.0757208228	        0.9394375994	        0.0000000000	       -0.0458521249	        0.0000000000	        0.0000000000	        0.0000000000	        0.0000000000	        0.0000000000	        0.0000000000	
        0.7528527063	       -0.0308950614	        0.0136449494	       -0.0026481868	        0.0000000000	        0.0000000000	        0.0000000000	      -19.4595919820	      583.5462237011	       20.0269847448	        0.9443941015	        0.0000000000	       -0.0458237991	        0.0000000000	        0.0000000000	        0.0000000000	        0.0000000000	        0.0000000000	        0.0000000000	
        0.7639240696	       -0.0449294558	        0.0192576296	       -0.0038414043	        0.0000000000	        0.0000000000	        0.0000000000	      -17.2405009095	      580.2201279159	       19.9663710464	        0.9495719658	        0.0000000000	       -0.0457438001	        0.0000000000	        0.0000000000	        0.0000000000	        0.0000000000	        0.0000000000	        0.0000000000	
        0.7749954329	       -0.0755058689	        0.0315131089	       -0.0064077838	        0.0000000000	        0.0000000000	        0.0000000000	      -15.5111885880	      578.8499790671	       19.8398243941	        0.9549130161	        0.0000000000	       -0.0456098956	        0.0000000000	        0.0000000000	        0.0000000000	        0.0000000000	        0.0000000000	        0.0000000000	
        0.7860667963	       -0.1365999120	        0.0557017755	       -0.0114688598	        0.0000000000	        0.0000000000	        0.0000000000	      -13.8440331801	      578.2032419435	       19.5721767806	        0.9602217333	        0.0000000000	       -0.0454423206	        0.0000000000	        0.0000000000	        0.0000000000	        0.0000000000	        0.0000000000	        0.0000000000	
        0.7971381596	       -0.2484126645	        0.0993093631	       -0.0205744738	        0.0000000000	        0.0000000000	        0.0000000000	      -11.7082577324	      577.9671837780	       19.4935921250	        0.9655995522	        0.0000000000	       -0.0452419932	        0.0000000000	        0.0000000000	        0.0000000000	        0.0000000000	        0.0000000000	        0.0000000000	
        0.8082095229	       -0.4295938319	        0.1689614832	       -0.0350331438	        0.0000000000	        0.0000000000	        0.0000000000	       -9.5577728819	      577.1912897295	       19.4078974151	        0.9709555932	        0.0000000000	       -0.0450169418	        0.0000000000	        0.0000000000	        0.0000000000	        0.0000000000	        0.0000000000	        0.0000000000	
        0.8192808863	       -0.6777676491	        0.2631789636	       -0.0542905661	        0.0000000000	        0.0000000000	        0.0000000000	       -7.2819277710	      575.2807760484	       19.4229956686	        0.9762562754	        0.0000000000	       -0.0447751221	        0.0000000000	        0.0000000000	        0.0000000000	        0.0000000000	        0.0000000000	        0.0000000000	
        0.8303522496	       -0.9564800537	        0.3678746451	       -0.0749903217	        0.0000000000	        0.0000000000	        0.0000000000	       -4.8499923512	      572.0560724741	       19.3373429384	        0.9815295372	        0.0000000000	       -0.0445179351	        0.0000000000	        0.0000000000	        0.0000000000	        0.0000000000	        0.0000000000	        0.0000000000	
        0.8414236129	       -1.2080522642	        0.4614343364	       -0.0921102427	        0.0000000000	        0.0000000000	        0.0000000000	       -2.2959574926	      567.2808471949	       18.8250817397	        0.9867585187	        0.0000000000	       -0.0442490495	        0.0000000000	        0.0000000000	        0.0000000000	        0.0000000000	        0.0000000000	        0.0000000000	
        0.8524949762	       -1.3849509895	        0.5263393214	       -0.1014145265	        0.0000000000	        0.0000000000	        0.0000000000	        0.7666090557	      561.5991478431	       17.8181667761	        0.9920374419	        0.0000000000	       -0.0439611154	        0.0000000000	        0.0000000000	        0.0000000000	        0.0000000000	        0.0000000000	        0.0000000000	
        0.8635663396	       -1.4701994250	        0.5565681071	       -0.1010776723	        0.0000000000	        0.0000000000	        0.0000000000	        4.6807305927	      555.3744571557	       16.2374689333	        0.9973841546	        0.0000000000	       -0.0436488149	        0.0000000000	        0.0000000000	        0.0000000000	        0.0000000000	        0.0000000000	        0.0000000000	
        0.8746377029	       -1.4738901784	        0.5561496906	       -0.0919078633	        0.0000000000	        0.0000000000	        0.0000000000	        8.9247158459	      549.5466975469	       14.2017404019	        1.0027954070	        0.0000000000	       -0.0433044975	        0.0000000000	        0.0000000000	        0.0000000000	        0.0000000000	        0.0000000000	        0.0000000000	
